<svg version="1.2" xmlns="http://www.w3.org/2000/svg" viewBox="0 0 1024 1024" width="1024" height="1024">
	<title>ReflectIcon</title>
	<style>
		.s0 { fill: #332f30 } 
		.s1 { fill: #1b74ba } 
		.s2 { fill: #ffffff } 
		.s3 { fill: #ededed } 
		.s4 { fill: #aca155 } 
		.s5 { fill: #ffd700 } 
		.s6 { fill: #beb7ff } 
		.s7 { fill: #ff8000 } 
		.s8 { fill: #1e3be9 } 
	</style>
	<g id="Window">
		<path id="Background" class="s0" d="m1008 80v928h-992v-928z"/>
		<path id="Header" class="s1" d="m48 16h928c17.7 0 32 14.3 32 32v32h-992v-32c0-17.7 14.3-32 32-32z"/>
		<path id="Minimise" class="s2" d="m911 40v8h-32v-8z"/>
		<g id="Maximise">
			<path id="Top" class="s2" d="m951 30v7h-28v-7z"/>
			<path id="Left" class="s2" d="m930 30v28h-7v-28z"/>
			<path id="Bottom" class="s2" d="m951 51v7h-28v-7z"/>
			<path id="Right" class="s2" d="m951 30v28h-7v-28z"/>
		</g>
		<g id="Exit">
			<path id="Bottom" class="s2" d="m990.3 52.6l-5.7 5.7-22.6-22.6 5.7-5.7z"/>
			<path id="Right" class="s2" d="m990.3 35.7l-22.6 22.6-5.7-5.7 22.6-22.6z"/>
		</g>
		<path id="Divider" class="s3" d="m520 80v928h-16v-928z"/>
	</g>
	<g id="Code1">
		<path id="MemberName2" class="s4" d="m282 592h148c8.8 0 16 7.2 16 16v16c0 8.8-7.2 16-16 16h-148c-8.8 0-16-7.2-16-16v-16c0-8.8 7.2-16 16-16z"/>
		<path id="Member2" class="s5" d="m112 592h128c8.8 0 16 7.2 16 16v16c0 8.8-7.2 16-16 16h-128c-8.8 0-16-7.2-16-16v-16c0-8.8 7.2-16 16-16z"/>
		<path id="ReflectProperty3" class="s6" d="m112 534h64c8.8 0 16 7.2 16 16v16c0 8.8-7.2 16-16 16h-64c-8.8 0-16-7.2-16-16v-16c0-8.8 7.2-16 16-16z"/>
		<path id="MemberName1" class="s4" d="m218 476h96c8.8 0 16 7.2 16 16v16c0 8.8-7.2 16-16 16h-96c-8.8 0-16-7.2-16-16v-16c0-8.8 7.2-16 16-16z"/>
		<path id="Member1" class="s5" d="m112 476h64c8.8 0 16 7.2 16 16v16c0 8.8-7.2 16-16 16h-64c-8.8 0-16-7.2-16-16v-16c0-8.8 7.2-16 16-16z"/>
		<path id="ReflectProperty2" class="s6" d="m112 418h64c8.8 0 16 7.2 16 16v16c0 8.8-7.2 16-16 16h-64c-8.8 0-16-7.2-16-16v-16c0-8.8 7.2-16 16-16z"/>
		<path id="FuncName3" class="s7" d="m186 360h148c8.8 0 16 7.2 16 16v16c0 8.8-7.2 16-16 16h-148c-8.8 0-16-7.2-16-16v-16c0-8.8 7.2-16 16-16z"/>
		<path id="FuncVoid3" class="s8" d="m111 360h32c8.8 0 16 7.2 16 16v16c0 8.8-7.2 16-16 16h-32c-8.8 0-16-7.2-16-16v-16c0-8.8 7.2-16 16-16z"/>
		<path id="FuncName2" class="s7" d="m185 302h54c8.8 0 16 7.2 16 16v16c0 8.8-7.2 16-16 16h-54c-8.8 0-16-7.2-16-16v-16c0-8.8 7.2-16 16-16z"/>
		<path id="FuncVoid2" class="s8" d="m112 302h32c8.8 0 16 7.2 16 16v16c0 8.8-7.2 16-16 16h-32c-8.8 0-16-7.2-16-16v-16c0-8.8 7.2-16 16-16z"/>
		<path id="ReflectProperty1" class="s6" d="m112 244h64c8.8 0 16 7.2 16 16v16c0 8.8-7.2 16-16 16h-64c-8.8 0-16-7.2-16-16v-16c0-8.8 7.2-16 16-16z"/>
		<path id="FuncName1" class="s7" d="m186 186h228c8.8 0 16 7.2 16 16v16c0 8.8-7.2 16-16 16h-228c-8.8 0-16-7.2-16-16v-16c0-8.8 7.2-16 16-16z"/>
		<path id="FuncVoid1" class="s8" d="m112 186h32c8.8 0 16 7.2 16 16v16c0 8.8-7.2 16-16 16h-32c-8.8 0-16-7.2-16-16v-16c0-8.8 7.2-16 16-16z"/>
		<path id="ClassParent" class="s5" d="m279 126h32c8.8 0 16 7.2 16 16v16c0 8.8-7.2 16-16 16h-32c-8.8 0-16-7.2-16-16v-16c0-8.8 7.2-16 16-16z"/>
		<path id="ClassName" class="s5" d="m136 126h96c8.8 0 16 7.2 16 16v16c0 8.8-7.2 16-16 16h-96c-8.8 0-16-7.2-16-16v-16c0-8.8 7.2-16 16-16z"/>
		<path id="Class" class="s8" d="m62 126h32c8.8 0 16 7.2 16 16v16c0 8.8-7.2 16-16 16h-32c-8.8 0-16-7.2-16-16v-16c0-8.8 7.2-16 16-16z"/>
	</g>
	<g id="Code2">
		<g id="StaticFuncs">
			<path id="StaticFunc3" class="s7" d="m778 824h148c8.8 0 16 7.2 16 16v16c0 8.8-7.2 16-16 16h-148c-8.8 0-16-7.2-16-16v-16c0-8.8 7.2-16 16-16z"/>
			<path id="StaticFunc3" class="s5" d="m568 824h168c8.8 0 16 7.2 16 16v16c0 8.8-7.2 16-16 16h-168c-8.8 0-16-7.2-16-16v-16c0-8.8 7.2-16 16-16z"/>
			<path id="StaticFunc2" class="s7" d="m778 766h148c8.8 0 16 7.2 16 16v16c0 8.8-7.2 16-16 16h-148c-8.8 0-16-7.2-16-16v-16c0-8.8 7.2-16 16-16z"/>
			<path id="StaticFunc2" class="s5" d="m568 766h168c8.8 0 16 7.2 16 16v16c0 8.8-7.2 16-16 16h-168c-8.8 0-16-7.2-16-16v-16c0-8.8 7.2-16 16-16z"/>
			<path id="StaticFunc1" class="s7" d="m778 708h148c8.8 0 16 7.2 16 16v16c0 8.8-7.2 16-16 16h-148c-8.8 0-16-7.2-16-16v-16c0-8.8 7.2-16 16-16z"/>
			<path id="StaticFunc1" class="s5" d="m568 708h168c8.8 0 16 7.2 16 16v16c0 8.8-7.2 16-16 16h-168c-8.8 0-16-7.2-16-16v-16c0-8.8 7.2-16 16-16z"/>
		</g>
		<g id="Func2">
			<g id="Variable2">
				<path id="VariableFunc2" class="s7" d="m850 650h120c8.8 0 16 7.2 16 16v16c0 8.8-7.2 16-16 16h-120c-8.8 0-16-7.2-16-16v-16c0-8.8 7.2-16 16-16z"/>
				<path id="VariableName2" class="s4" d="m792 650h16c8.8 0 16 7.2 16 16v16c0 8.8-7.2 16-16 16h-16c-8.8 0-16-7.2-16-16v-16c0-8.8 7.2-16 16-16z"/>
				<path id="VariableType2" class="s5" d="m718 650h32c8.8 0 16 7.2 16 16v16c0 8.8-7.2 16-16 16h-32c-8.8 0-16-7.2-16-16v-16c0-8.8 7.2-16 16-16z"/>
			</g>
			<g id="Variable1">
				<path id="VariableFunc1" class="s7" d="m850 592h120c8.8 0 16 7.2 16 16v16c0 8.8-7.2 16-16 16h-120c-8.8 0-16-7.2-16-16v-16c0-8.8 7.2-16 16-16z"/>
				<path id="VariableName1" class="s4" d="m792 592h16c8.8 0 16 7.2 16 16v16c0 8.8-7.2 16-16 16h-16c-8.8 0-16-7.2-16-16v-16c0-8.8 7.2-16 16-16z"/>
				<path id="VariableType1" class="s5" d="m718 592h32c8.8 0 16 7.2 16 16v16c0 8.8-7.2 16-16 16h-32c-8.8 0-16-7.2-16-16v-16c0-8.8 7.2-16 16-16z"/>
			</g>
			<path id="FuncName2" class="s7" d="m742 534h148c8.8 0 16 7.2 16 16v16c0 8.8-7.2 16-16 16h-148c-8.8 0-16-7.2-16-16v-16c0-8.8 7.2-16 16-16z"/>
			<path id="FuncType2" class="s5" d="m668 534h32c8.8 0 16 7.2 16 16v16c0 8.8-7.2 16-16 16h-32c-8.8 0-16-7.2-16-16v-16c0-8.8 7.2-16 16-16z"/>
		</g>
		<g id="Func1">
			<g id="Variable1">
				<path id="VariableFunc1" class="s7" d="m850 476h120c8.8 0 16 7.2 16 16v16c0 8.8-7.2 16-16 16h-120c-8.8 0-16-7.2-16-16v-16c0-8.8 7.2-16 16-16z"/>
				<path id="VariableName1" class="s4" d="m792 476h16c8.8 0 16 7.2 16 16v16c0 8.8-7.2 16-16 16h-16c-8.8 0-16-7.2-16-16v-16c0-8.8 7.2-16 16-16z"/>
				<path id="VariableType1" class="s5" d="m718 476h32c8.8 0 16 7.2 16 16v16c0 8.8-7.2 16-16 16h-32c-8.8 0-16-7.2-16-16v-16c0-8.8 7.2-16 16-16z"/>
			</g>
			<path id="FuncName1" class="s7" d="m742 418h148c8.8 0 16 7.2 16 16v16c0 8.8-7.2 16-16 16h-148c-8.8 0-16-7.2-16-16v-16c0-8.8 7.2-16 16-16z"/>
			<path id="FuncType1" class="s5" d="m668 418h32c8.8 0 16 7.2 16 16v16c0 8.8-7.2 16-16 16h-32c-8.8 0-16-7.2-16-16v-16c0-8.8 7.2-16 16-16z"/>
		</g>
		<g id="Static2">
			<path id="StaticName2" class="s4" d="m758 244h96c8.8 0 16 7.2 16 16v16c0 8.8-7.2 16-16 16h-96c-8.8 0-16-7.2-16-16v-16c0-8.8 7.2-16 16-16z"/>
			<path id="StaticType2" class="s8" d="m692 245h24c8.8 0 16 7.2 16 16v16c0 8.8-7.2 16-16 16h-24c-8.8 0-16-7.2-16-16v-16c0-8.8 7.2-16 16-16z"/>
			<path id="Static2" class="s8" d="m618 245h32c8.8 0 16 7.2 16 16v16c0 8.8-7.2 16-16 16h-32c-8.8 0-16-7.2-16-16v-16c0-8.8 7.2-16 16-16z"/>
		</g>
		<g id="Static1">
			<path id="StaticName1" class="s4" d="m862 186h96c8.8 0 16 7.2 16 16v16c0 8.8-7.2 16-16 16h-96c-8.8 0-16-7.2-16-16v-16c0-8.8 7.2-16 16-16z"/>
			<path id="StaticType1" class="s5" d="m692 186h128c8.8 0 16 7.2 16 16v16c0 8.8-7.2 16-16 16h-128c-8.8 0-16-7.2-16-16v-16c0-8.8 7.2-16 16-16z"/>
			<path id="Static1" class="s8" d="m618 186h32c8.8 0 16 7.2 16 16v16c0 8.8-7.2 16-16 16h-32c-8.8 0-16-7.2-16-16v-16c0-8.8 7.2-16 16-16z"/>
		</g>
		<g id="Class">
			<path id="ClassName1" class="s5" d="m692 360h224c8.8 0 16 7.2 16 16v16c0 8.8-7.2 16-16 16h-224c-8.8 0-16-7.2-16-16v-16c0-8.8 7.2-16 16-16z"/>
			<path id="Class1" class="s8" d="m618 360h32c8.8 0 16 7.2 16 16v16c0 8.8-7.2 16-16 16h-32c-8.8 0-16-7.2-16-16v-16c0-8.8 7.2-16 16-16z"/>
			<path id="template1" class="s8" d="m618 302h68c8.8 0 16 7.2 16 16v16c0 8.8-7.2 16-16 16h-68c-8.8 0-16-7.2-16-16v-16c0-8.8 7.2-16 16-16z"/>
		</g>
		<g id="Namepsace">
			<path id="NamespaceName" class="s5" d="m642 126h96c8.8 0 16 7.2 16 16v16c0 8.8-7.2 16-16 16h-96c-8.8 0-16-7.2-16-16v-16c0-8.8 7.2-16 16-16z"/>
			<path id="Namespace" class="s8" d="m568 126h32c8.8 0 16 7.2 16 16v16c0 8.8-7.2 16-16 16h-32c-8.8 0-16-7.2-16-16v-16c0-8.8 7.2-16 16-16z"/>
		</g>
	</g>
</svg>